#!OML:ASF F:\VICON\USERDATA\INSTALL\rory3\rory3.ASF
:FULLY-SPECIFIED
:DEGREES
175
root -9.8215 18.0488 5.00192 180.405 -16.3336 176.166
lowerback 8.39219 -3.75939 -3.17283
upperback -0.761759 -5.2505 2.63996
thorax -4.96079 -2.49781 5.18178
lowerneck 6.95924 -13.4064 -14.3991
upperneck 27.9157 -39.4883 16.689
head 15.3021 -20.394 2.39439
rclavicle 2.78299e-015 5.40694e-014
rhumerus -27.0416 -8.92183 -81.5666
rradius 34.8733
rwrist 1.98434
rhand -17.7414 5.56866
rfingers 7.12502
rthumb 8.51991 -24.2395
lclavicle 2.78299e-015 5.40694e-014
lhumerus -36.7391 8.21855 79.3622
lradius 28.7468
lwrist -6.09665
lhand -17.1536 28.3586
lfingers 7.12502
lthumb 9.08716 58.1429
rfemur 6.98456 7.77348 25.5277
rtibia 34.0418
rfoot 3.23306 12.0618
rtoes 12.7355
lfemur -17.0825 -2.05863 -22.153
ltibia 22.612
lfoot 15.0589 -24.7095
ltoes 16.904
176
root -9.76696 18.0323 5.15468 180.635 -16.9191 176.183
lowerback 8.69828 -3.75928 -3.07935
upperback -0.839698 -5.24731 2.59697
thorax -5.22784 -2.48787 5.11597
lowerneck 6.88363 -13.3964 -14.9391
upperneck 28.0589 -39.8274 17.012
head 15.6933 -20.5302 2.41313
rclavicle 3.45388e-014 4.77083e-015
rhumerus -26.7073 -8.56792 -81.8097
rradius 34.993
rwrist 2.02576
rhand -17.7459 5.11263
rfingers 7.12502
rthumb 8.51554 -24.6957
lclavicle 3.45388e-014 4.77083e-015
lhumerus -36.6469 8.67957 78.9652
lradius 28.4525
lwrist -6.07498
lhand -17.2372 27.8017
lfingers 7.12502
lthumb 9.00643 57.5894
rfemur 7.11052 7.77511 26.0024
rtibia 33.1141
rfoot 1.13428 10.3867
rtoes 10.3411
lfemur -17.7377 -2.32884 -21.9414
ltibia 22.0712
lfoot 16.4609 -24.1568
ltoes 17.0252
177
root -9.71385 18.0118 5.30857 180.84 -17.4768 176.264
lowerback 8.95978 -3.72293 -2.86442
upperback -0.863484 -5.18295 2.53413
thorax -5.43165 -2.45518 4.9471
lowerneck 6.74249 -13.5409 -15.016
upperneck 28.1635 -39.9435 17.0104
head 15.8175 -20.5311 2.35962
rclavicle -1.25234e-014 -2.38542e-015
rhumerus -26.3532 -8.28437 -82.0629
rradius 35.0914
rwrist 1.94031
rhand -17.9637 4.99761
rfingers 7.12502
rthumb 8.30539 -24.8191
lclavicle -1.25234e-014 -2.38542e-015
lhumerus -36.5525 9.03582 78.5995
lradius 28.3111
lwrist -5.99866
lhand -17.321 27.5576
lfingers 7.12502
lthumb 8.92564 57.3488
rfemur 7.02542 7.65101 26.4697
rtibia 32.3711
rfoot -0.395382 8.91547
rtoes 11.7789
lfemur -18.2769 -2.43643 -21.6726
ltibia 21.2913
lfoot 16.9848 -24.1937
ltoes 13.5505
178
root -9.66054 17.9932 5.46068 180.955 -18.0606 176.374
lowerback 9.1936 -3.69116 -2.62025
upperback -0.796566 -5.12219 2.46248
thorax -5.52666 -2.43138 4.74479
lowerneck 6.53932 -13.7283 -14.951
upperneck 28.3312 -40.0018 16.8565
head 15.888 -20.4899 2.25608
rclavicle 4.00054e-014 3.97569e-015
rhumerus -25.944 -8.02643 -82.3395
rradius 35.1811
rwrist 1.87433
rhand -18.1273 4.98704
rfingers 7.12502
rthumb 8.14745 -24.8359
lclavicle 4.00054e-014 3.97569e-015
lhumerus -36.4391 9.32883 78.2708
lradius 28.3051
lwrist -5.99797
lhand -17.3449 27.4561
lfingers 7.12502
lthumb 8.90252 57.2483
rfemur 6.94569 7.36105 26.9241
rtibia 31.7101
rfoot -1.52951 7.68883
rtoes 13.2837
lfemur -18.6758 -2.59331 -21.3515
ltibia 20.4365
lfoot 18.2558 -23.0827
ltoes 12.8712
179
root -9.60713 17.9766 5.61425 180.999 -18.6363 176.578
lowerback 9.52714 -3.62428 -2.28123
upperback -0.845044 -5.00071 2.46354
thorax -5.8062 -2.37283 4.57315
lowerneck 6.94523 -13.7694 -15.1568
upperneck 28.0906 -39.9931 17.1265
head 15.8294 -20.5143 2.43031
rclavicle 9.93923e-016 -1.59028e-015
rhumerus -25.8043 -7.64521 -82.4345
rradius 35.3066
rwrist 1.71953
rhand -17.8122 5.01073
rfingers 7.12502
rthumb 8.45155 -24.8002
lclavicle 9.93923e-016 -1.59028e-015
lhumerus -36.4826 9.42386 78.1317
lradius 28.2854
lwrist -5.91178
lhand -17.3502 27.7093
lfingers 7.12502
lthumb 8.8974 57.5017
rfemur 6.81406 6.96004 27.4178
rtibia 31.1311
rfoot -2.6868 6.46454
rtoes 11.9574
lfemur -19.0642 -2.72266 -20.9224
ltibia 19.5815
lfoot 20.1756 -20.8841
ltoes 15.3605
180
root -9.55772 17.9593 5.76648 181.008 -19.0667 176.984
lowerback 9.8081 -3.51209 -1.72679
upperback -0.982418 -4.78688 2.53392
thorax -6.16847 -2.27337 4.34088
lowerneck 7.79829 -13.7992 -15.3548
upperneck 27.5342 -39.8521 17.4768
head 15.5249 -20.541 2.75005
rclavicle -9.19379e-015 7.95139e-015
rhumerus -25.8634 -7.25645 -82.4046
rradius 35.4403
rwrist 1.57508
rhand -17.0778 5.44712
rfingers 7.12502
rthumb 9.1603 -24.3339
lclavicle -9.19379e-015 7.95139e-015
lhumerus -36.7161 9.5693 78.0112
lradius 28.199
lwrist -5.79437
lhand -17.5611 27.642
lfingers 7.12502
lthumb 8.69392 57.4429
rfemur 6.54284 6.58487 28.0128
rtibia 30.6557
rfoot -3.84662 5.23686
rtoes 10.5452
lfemur -19.4685 -2.65718 -20.3306
ltibia 18.7271
lfoot 20.8542 -19.5331
ltoes 13.4584
181
root -9.50757 17.9424 5.91126 180.965 -19.4563 177.399
lowerback 9.99917 -3.4117 -1.23987
upperback -0.928358 -4.59845 2.57955
thorax -6.26897 -2.19672 4.10336
lowerneck 8.08872 -13.9859 -15.2117
upperneck 27.2472 -39.7097 17.4812
head 15.266 -20.4683 2.84403
rclavicle -5.69021e-014 3.89618e-014
rhumerus -25.726 -7.00543 -82.5294
rradius 35.6169
rwrist 1.53045
rhand -16.8027 5.88559
rfingers 7.12502
rthumb 9.42575 -23.8836
lclavicle -5.69021e-014 3.89618e-014
lhumerus -36.6618 9.83386 77.8165
lradius 28.0995
lwrist -5.62282
lhand -17.8988 27.3612
lfingers 7.12502
lthumb 8.36802 57.1755
rfemur 6.28162 6.21304 28.5889
rtibia 30.237
rfoot -4.94825 4.04876
rtoes 8.46486
lfemur -19.7994 -2.52259 -19.7503
ltibia 18.0065
lfoot 18.1794 -20.0686
ltoes 7.23511
182
root -9.45371 17.933 6.05015 180.914 -19.8469 177.701
lowerback 10.1435 -3.3523 -1.00226
upperback -0.697025 -4.49863 2.63719
thorax -6.12657 -2.16424 4.01597
lowerneck 7.77967 -14.2874 -14.906
upperneck 27.183 -39.5478 17.2531
head 15.1074 -20.2961 2.76041
rclavicle -4.74101e-014 2.14687e-014
rhumerus -25.4497 -6.66221 -82.7517
rradius 35.9564
rwrist 1.55429
rhand -16.8465 6.02645
rfingers 7.12502
rthumb 9.38349 -23.7447
lclavicle -4.74101e-014 2.14687e-014
lhumerus -36.3091 10.47 77.5349
lradius 27.9433
lwrist -5.6549
lhand -17.859 27.3826
lfingers 7.12502
lthumb 8.40643 57.1953
rfemur 6.05631 5.90082 29.0283
rtibia 29.8346
rfoot -5.90685 2.96366
rtoes 6.93314
lfemur -20.1249 -2.26724 -19.299
ltibia 17.4699
lfoot 17.7801 -20.1298
ltoes 1.39494
183
root -9.39725 17.9249 6.18717 180.837 -20.2488 177.95
lowerback 10.35 -3.28427 -0.827795
upperback -0.499616 -4.39453 2.68298
thorax -6.05119 -2.12513 3.95729
lowerneck 7.48709 -14.4748 -14.8581
upperneck 27.199 -39.542 17.2381
head 15.1496 -20.2128 2.7116
rclavicle 2.87244e-014 1.19271e-014
rhumerus -25.1899 -6.32746 -82.9171
rradius 36.2709
rwrist 1.64215
rhand -16.8112 5.88222
rfingers 7.12502
rthumb 9.41751 -23.8874
lclavicle 2.87244e-014 1.19271e-014
lhumerus -35.9454 11.0429 77.3246
lradius 27.7513
lwrist -5.63999
lhand -18.0405 27.3136
lfingers 7.12502
lthumb 8.23121 57.1333
rfemur 5.83915 5.58027 29.3684
rtibia 29.4473
rfoot -6.592 2.38026
rtoes 6.71798
lfemur -20.3997 -1.99214 -18.8934
ltibia 17.0212
lfoot 16.7276 -20.576
ltoes -2.36058
184
root -9.33867 17.9176 6.3223 180.811 -20.6214 177.969
lowerback 10.6109 -3.16168 -0.890582
upperback -0.364097 -4.24415 2.66575
thorax -6.06212 -2.05183 3.96509
lowerneck 7.32755 -14.5588 -14.9454
upperneck 27.3449 -39.6892 17.3106
head 15.3281 -20.2262 2.6696
rclavicle 6.26172e-015 -4.13472e-014
rhumerus -24.8536 -6.06808 -83.0188
rradius 36.2483
rwrist 1.7801
rhand -16.7947 5.67084
rfingers 7.12502
rthumb 9.43345 -24.098
lclavicle 6.26172e-015 -4.13472e-014
lhumerus -35.5485 11.604 77.1573
lradius 27.5263
lwrist -5.71782
lhand -18.2031 27.44
lfingers 7.12502
lthumb 8.07435 57.2657
rfemur 5.5897 5.36716 29.4619
rtibia 29.1365
rfoot -7.06061 2.08823
rtoes 6.28192
lfemur -20.59 -1.84107 -18.6835
ltibia 16.6461
lfoot 15.4464 -21.5572
ltoes -5.19485
185
root -9.28184 17.9202 6.44861 180.792 -20.8712 177.916
lowerback 10.7504 -3.01436 -1.04318
upperback -0.167441 -4.07552 2.62683
thorax -5.93672 -1.97125 3.98486
lowerneck 7.1018 -14.7028 -14.7827
upperneck 27.4841 -39.6506 17.1586
head 15.3431 -20.1414 2.58678
rclavicle 5.53615e-014 0
rhumerus -24.3708 -5.62869 -83.1459
rradius 36.0612
rwrist 1.75026
rhand -16.8597 5.79093
rfingers 7.12502
rthumb 9.37076 -23.9808
lclavicle 5.53615e-014 0
lhumerus -35.2169 12.2477 77.0026
lradius 27.4457
lwrist -5.88595
lhand -18.1498 27.8566
lfingers 7.12502
lthumb 8.12572 57.6803
rfemur 5.30373 5.38314 29.4511
rtibia 28.9036
rfoot -7.45977 2.08082
rtoes 6.92548
lfemur -20.6955 -2.06814 -18.4159
ltibia 16.462
lfoot 13.9247 -21.9204
ltoes -2.78549
186
root -9.2228 17.9243 6.5739 180.728 -21.1622 177.784
lowerback 10.9072 -2.8894 -1.3026
upperback 0.189062 -3.95935 2.57995
thorax -5.64249 -1.92229 4.0577
lowerneck 6.47886 -14.9719 -14.4706
upperneck 27.6753 -39.5863 16.8724
head 15.3706 -19.9771 2.39894
rclavicle -2.6339e-014 4.92986e-014
rhumerus -23.6045 -5.10831 -83.2928
rradius 35.8497
rwrist 1.72411
rhand -17.0332 5.9969
rfingers 7.12502
rthumb 9.20332 -23.7823
lclavicle -2.6339e-014 4.92986e-014
lhumerus -34.766 12.7637 76.9379
lradius 27.5472
lwrist -5.82867
lhand -18.0754 27.9566
lfingers 7.12502
lthumb 8.19761 57.7776
rfemur 5.03867 5.40177 29.3472
rtibia 28.7559
rfoot -7.8848 2.1248
rtoes 7.70484
lfemur -20.6746 -2.41906 -18.208
ltibia 16.4832
lfoot 11.8445 -22.336
ltoes -2.27875
187
root -9.16319 17.9246 6.69276 180.628 -21.5562 177.464
lowerback 11.1543 -2.76544 -1.74538
upperback 0.500366 -3.86813 2.50387
thorax -5.43572 -1.87936 4.21562
lowerneck 5.89671 -15.163 -14.3519
upperneck 28.0488 -39.695 16.6155
head 15.5758 -19.9095 2.18114
rclavicle 2.65378e-014 4.69132e-014
rhumerus -23.099 -4.71203 -83.3368
rradius 35.7415
rwrist 1.89543
rhand -16.9667 5.91483
rfingers 7.12502
rthumb 9.26744 -23.8615
lclavicle 2.65378e-014 4.69132e-014
lhumerus -34.5143 12.7852 77.0778
lradius 27.8536
lwrist -5.37426
lhand -18.1029 27.7218
lfingers 7.12502
lthumb 8.17099 57.5438
rfemur 4.87293 5.3456 29.0594
rtibia 28.6818
rfoot -8.29524 2.10099
rtoes 7.80044
lfemur -20.507 -2.84833 -18.2118
ltibia 16.8131
lfoot 8.3692 -22.7367
ltoes -6.04463
188
root -9.10427 17.9283 6.8029 180.522 -22.0519 177.198
lowerback 11.4029 -2.67959 -2.07139
upperback 0.533909 -3.80037 2.44153
thorax -5.52818 -1.83607 4.33889
lowerneck 6.10839 -15.1297 -14.4027
upperneck 28.3103 -39.6909 16.4322
head 15.622 -19.9326 2.15299
rclavicle -3.8763e-015 -8.74653e-015
rhumerus -23.2932 -4.45868 -83.2348
rradius 35.8377
rwrist 2.21236
rhand -16.3178 6.07829
rfingers 7.12502
rthumb 9.89356 -23.6692
lclavicle -3.8763e-015 -8.74653e-015
lhumerus -34.8872 12.5358 77.2356
lradius 28.2847
lwrist -4.87846
lhand -18.086 27.5426
lfingers 7.12502
lthumb 8.18734 57.364
rfemur 4.69093 5.25166 28.8401
rtibia 28.6756
rfoot -8.57767 2.0339
rtoes 8.39758
lfemur -20.4273 -3.28744 -18.1843
ltibia 17.592
lfoot 5.14231 -22.5414
ltoes -9.59922
